<svg width="82" height="54" viewBox="0 0 82 54" fill="none" xmlns="http://www.w3.org/2000/svg">
<path d="M0.544189 40.5607C0.88535 40.0934 1.31594 39.8278 1.97508 39.8294C7.08089 39.8445 12.1884 39.8294 17.2942 39.8385C17.3952 39.8385 17.4946 39.8551 17.6039 39.8643C16.9414 40.6836 16.2061 41.4361 15.6911 42.3009C15.176 43.1657 14.8729 44.1626 14.4473 45.1761H10.2871C7.60257 45.1761 4.918 45.1624 2.23343 45.1852C1.5213 45.1852 0.953251 45.0168 0.544189 44.4721V40.5607Z" fill="white"/>
<path d="M24.0165 36.6615H5.1367C3.69257 36.6615 3.38287 36.3747 3.38287 35.0472C3.38287 24.8646 3.38287 14.683 3.38287 4.50242C3.38287 2.14769 4.76076 0.886871 7.33603 0.886871C18.4773 0.886871 29.6175 0.886871 40.7565 0.886871C43.3384 0.886871 44.7312 2.13251 44.7312 4.49028C44.7389 14.6961 44.7389 24.9015 44.7312 35.1063C44.7312 36.3656 44.3884 36.6615 42.9807 36.6615H24.0165Z" fill="white"/>
<path d="M77.5203 39.8339C78.4593 39.8339 79.2741 39.8233 80.0889 39.8339C81.0247 39.8506 81.4569 40.2284 81.4735 41.0644C81.4933 42.0278 81.495 42.9943 81.4735 43.9593C81.4569 44.7179 81.0429 45.1503 80.2115 45.1579C77.2884 45.1822 74.3654 45.1579 71.4423 45.1776C70.9455 45.1776 70.9057 44.9136 70.8296 44.595C70.2748 42.3009 68.9035 40.5258 66.8085 39.1739C63.3605 36.9527 58.0609 37.3699 55.0914 40.1116C53.7218 41.3754 52.7513 42.8244 52.3622 44.5829C52.3066 44.7818 52.2391 44.9778 52.1601 45.17H51.4447C45.6781 45.17 39.9098 45.17 34.1432 45.1806C33.5685 45.1806 33.3515 45.0502 33.2207 44.4979C32.8659 42.9799 32.0494 41.5849 30.8657 40.4742C30.6868 40.3043 30.5179 40.1283 30.2397 39.8521H48.0297V38.8614C48.0297 29.3807 48.0297 19.899 48.0297 10.4163C48.0297 10.1508 48.0181 9.88525 48.0297 9.62125C48.1308 8.30277 48.9505 7.47436 50.3831 7.46222C54.174 7.43339 57.9681 7.41367 61.7573 7.51077C64.8344 7.58815 67.2225 8.95821 68.9548 11.2599C71.2734 14.3596 73.5589 17.4896 75.8509 20.609C76.9723 22.1427 77.5554 23.9538 77.522 25.7995C77.5142 30.1904 77.5142 34.5812 77.522 38.9721L77.5203 39.8339ZM61.5685 22.6194C63.9136 22.6194 66.2587 22.6497 68.6021 22.5936C69.0227 22.583 69.6057 22.3114 69.7995 21.9973C69.9651 21.7181 69.8458 21.1279 69.6173 20.8199C67.8833 18.488 66.0881 16.1939 64.3177 13.8816C64.1605 13.6583 63.9421 13.4768 63.6843 13.3551C63.4266 13.2334 63.1384 13.1759 62.8487 13.1883C60.1608 13.1989 57.4746 13.1883 54.7867 13.1883C53.6986 13.1883 53.2962 13.5494 53.2962 14.531C53.2841 16.7765 53.2841 19.021 53.2962 21.2645C53.2962 22.2674 53.6821 22.6088 54.7735 22.6118C57.0374 22.6255 59.303 22.6209 61.5685 22.6194Z" fill="white"/>
<path d="M24.0163 39.8387C27.9513 39.866 31.2469 42.9111 31.179 46.4584C31.1095 50.0892 27.8105 53.066 23.9302 52.9977C19.9886 52.9294 16.8172 49.9905 16.8205 46.4144C16.8238 42.8079 20.1029 39.8129 24.0163 39.8387ZM24.0163 43.1402C23.548 43.1342 23.0831 43.2132 22.6484 43.3727C22.2136 43.5322 21.8177 43.7691 21.4834 44.0695C21.1491 44.37 20.8831 44.7282 20.7007 45.1234C20.5183 45.5185 20.4232 45.9429 20.4209 46.3719C20.4117 46.8008 20.4952 47.2271 20.6666 47.6263C20.838 48.0255 21.094 48.3897 21.4198 48.6978C21.7455 49.006 22.1346 49.2521 22.5646 49.4218C22.9946 49.5916 23.457 49.6818 23.9252 49.6871C24.3995 49.6945 24.8707 49.6156 25.3115 49.4549C25.7522 49.2941 26.1537 49.0548 26.4926 48.7507C26.8316 48.4467 27.1012 48.084 27.286 47.6837C27.4707 47.2835 27.5668 46.8535 27.5687 46.419C27.5692 45.5534 27.1959 44.7229 26.5303 44.1086C25.8648 43.4944 24.961 43.1462 24.0163 43.1402Z" fill="white"/>
<path d="M54.4256 46.4294C54.4291 44.686 55.1853 43.0146 56.5291 41.78C57.8729 40.5455 59.6952 39.8482 61.5983 39.8401C65.5216 39.8401 68.814 42.8746 68.7693 46.4431C68.7474 48.1746 67.9877 49.8296 66.6522 51.055C65.3168 52.2805 63.5114 52.9792 61.6215 53.002C57.7114 53.0339 54.4356 50.0434 54.4256 46.4294ZM61.6099 43.1401C61.1415 43.1355 60.6767 43.2155 60.2421 43.3755C59.8074 43.5355 59.4115 43.7724 59.0768 44.0727C58.7421 44.3729 58.4753 44.7306 58.2916 45.1254C58.1079 45.5201 58.0109 45.9442 58.0062 46.3733C57.9993 46.8094 58.0877 47.2423 58.2661 47.6466C58.4446 48.0509 58.7095 48.4185 59.0452 48.7277C59.381 49.0368 59.7809 49.2813 60.2213 49.4469C60.6617 49.6124 61.1339 49.6955 61.6099 49.6914C62.5557 49.6863 63.4613 49.3402 64.1308 48.728C64.8003 48.1158 65.1797 47.2868 65.1871 46.4203C65.1836 45.5519 64.8057 44.7198 64.1357 44.1054C63.4657 43.4911 62.5578 43.1441 61.6099 43.1401Z" fill="white"/>
</svg>
