<svg width="79" height="69" viewBox="0 0 79 69" fill="none" xmlns="http://www.w3.org/2000/svg">
<path d="M0.819992 65.7544C1.34541 64.5136 2.275 63.9848 3.60875 64.0051C5.04354 64.0255 6.3975 63.6594 7.67063 62.9881C9.89355 61.8084 12.2377 60.9745 14.9052 61.0151C14.784 60.6897 14.7031 60.4456 14.6021 60.2015C11.9952 53.591 9.38834 46.9601 6.80167 40.3495C6.27625 39.0274 6.61979 38.3765 8.01417 38.0104C18.3204 35.3052 28.6065 32.5796 38.9128 29.8947C39.2967 29.793 39.7615 29.7727 40.1657 29.8744C50.472 32.5593 60.758 35.2848 71.0643 37.9901C72.4991 38.3765 72.8022 39.0071 72.2566 40.3902C69.6699 46.9601 67.0833 53.53 64.4966 60.0998C64.3955 60.3439 64.3147 60.6083 64.1935 60.9338C64.8401 60.9948 65.4464 60.9745 66.0122 61.1168C67.5076 61.5236 69.0435 61.8694 70.458 62.5203C72.297 63.3543 74.1158 64.0458 76.1568 64.0458C77.3087 64.0458 78.1979 64.9815 78.2787 66.1205C78.3595 67.2189 77.6522 68.2156 76.561 68.48C76.2578 68.5613 75.9143 68.5613 75.591 68.5613C73.0043 68.5613 70.6601 67.7274 68.3968 66.5477C66.0526 65.3272 63.5468 65.2662 61.0409 65.8968C60.1922 66.1002 59.4041 66.5273 58.6159 66.9138C54.0488 69.1309 49.4818 69.2326 44.9551 66.9138C42.3078 65.5713 39.6201 65.1442 36.7707 65.8764C35.8815 66.1002 35.0328 66.5477 34.2042 66.9545C29.718 69.1105 25.1913 69.2122 20.7454 66.9545C18.0779 65.5917 15.37 65.1238 12.5004 65.8764C11.6113 66.1002 10.7625 66.5273 9.93397 66.9545C8.03438 67.9104 6.03375 68.4596 3.91187 68.541C2.19416 68.6224 1.60812 68.2969 0.860409 66.7714C0.819992 66.4663 0.819992 66.1002 0.819992 65.7544ZM62.213 43.6446C62.2332 42.4649 61.4855 41.6513 60.0709 41.2648C53.5436 39.5359 47.0163 37.8274 40.489 36.1391C39.9636 35.9967 39.3776 35.9561 38.8522 36.0781C32.0823 37.8274 25.3125 39.6173 18.5427 41.4072C17.795 41.6106 17.2696 42.0988 17.0069 42.8514C16.7038 43.6853 16.8654 44.4583 17.4515 45.1091C18.1588 45.9024 19.0277 46.0041 20.0179 45.7397C26.3634 44.0718 32.729 42.4039 39.0947 40.736C39.3978 40.6546 39.7413 40.6546 40.0444 40.736C44.4499 41.8751 48.8553 43.0344 53.2607 44.1938C55.2411 44.7227 57.2014 45.2515 59.1818 45.76C60.7984 46.1872 62.1928 45.1702 62.213 43.6446Z" fill="white"/>
<path d="M62.839 31.1154C60.2928 30.4442 57.888 29.8136 55.4832 29.1831C50.5725 27.8813 45.6619 26.5592 40.731 25.3184C39.9833 25.1354 39.1144 25.1354 38.3667 25.3388C31.1927 27.1897 24.0389 29.0814 16.8852 30.973C16.7235 31.0137 16.5416 31.034 16.2991 31.0747C16.2789 30.7899 16.2587 30.5662 16.2587 30.3221C16.2587 25.8269 16.2587 21.3318 16.2587 16.8569C16.2587 15.3924 16.7437 14.9043 18.2189 14.9043C32.4254 14.9043 46.6521 14.9043 60.8586 14.9043C62.3136 14.9043 62.8188 15.3924 62.8188 16.8569C62.8188 21.3521 62.8188 25.8473 62.8188 30.3221C62.839 30.5458 62.839 30.7696 62.839 31.1154Z" fill="white"/>
<path d="M46.3703 10.2867C41.8032 10.2867 37.317 10.2867 32.7903 10.2867C32.7701 10.1036 32.7297 9.90024 32.7297 9.71717C32.7297 7.96792 32.7095 6.21867 32.7297 4.46941C32.7499 2.25234 34.2857 0.584444 36.4682 0.482743C38.5093 0.401382 40.5503 0.401382 42.5914 0.482743C44.7941 0.564104 46.3501 2.232 46.3703 4.42873C46.3905 6.36105 46.3703 8.27302 46.3703 10.2867Z" fill="white"/>
</svg>
