<svg width="81" height="80" viewBox="0 0 81 80" fill="none" xmlns="http://www.w3.org/2000/svg">
<path d="M76.6121 66.2894C62.1404 66.2894 47.6876 66.2894 33.2159 66.3083C32.6673 66.3083 32.3647 66.1199 32.0052 65.7055C30.6621 64.1233 29.2433 62.5977 27.8624 61.0532C27.9191 61.0532 28.1272 61.0155 28.3542 61.0155C43.4123 61.0155 58.4705 61.0155 73.5286 60.9966C75.0798 60.9966 76.0635 61.6559 76.631 63.0497C76.6121 64.1234 76.6121 65.197 76.6121 66.2894Z" fill="white"/>
<path d="M76.6109 73.7486C76.0245 75.312 74.8705 75.8206 73.2437 75.8206C61.0799 75.7829 48.9161 75.8017 36.7334 75.8017C36.4496 75.8017 36.1659 75.8017 35.9767 75.8017C35.5605 74.0123 35.1633 72.2983 34.7471 70.5089C48.6891 70.5089 62.65 70.5089 76.6109 70.5089C76.6109 71.5825 76.6109 72.675 76.6109 73.7486Z" fill="white"/>
<path d="M42.4854 56.74C41.0477 56.74 39.6856 56.74 38.229 56.74C38.229 55.4781 38.1344 54.2349 38.2479 53.0106C38.3614 51.7863 37.9263 50.9763 37.0561 50.1476C35.0509 48.2829 33.1592 46.324 31.2296 44.3839C30.8513 44.0072 30.4918 43.8377 29.9432 43.8565C26.803 43.9883 23.7384 43.6681 20.7873 42.4627C16.4552 40.7109 14.0906 37.377 13.0501 32.9695C12.4259 30.2949 12.2935 27.5825 12.615 24.8514C12.7286 23.7777 13.4096 22.9866 14.4122 22.8736C18.6497 22.3651 22.7547 22.7418 26.6138 24.6818C30.2838 26.5277 32.1944 29.6733 33.1403 33.5157C33.651 35.6253 33.8402 37.7914 33.7078 39.9575C33.6699 40.5979 33.8591 41.05 34.3321 41.4832C35.5995 42.7075 36.8291 43.9695 38.1723 45.3257C38.2101 45.0431 38.2479 44.8736 38.2479 44.7041C38.2479 40.3154 38.2668 35.9079 38.229 31.5192C38.229 31.199 38.0209 30.8034 37.775 30.5962C35.1077 28.1099 32.8754 25.3034 31.7404 21.7812C30.454 17.7503 31.4377 14.0962 33.6321 10.6493C34.9942 8.53973 36.6778 6.71267 38.6073 5.09281C39.8748 4.03802 40.8207 4.01918 42.0692 5.07398C45.0392 7.57911 47.5174 10.4798 48.8416 14.2092C50.2793 18.2401 49.428 21.9695 47.2336 25.5106C46.0418 27.413 44.5663 29.0894 42.9205 30.6151C42.7124 30.8034 42.5043 31.1425 42.5043 31.425C42.4854 35.9455 42.4854 40.4472 42.4854 44.9678C42.4854 45.0431 42.5043 45.0996 42.5232 45.2503C42.7124 45.0996 42.8637 44.9678 42.9962 44.8359C44.1312 43.7058 45.2473 42.5568 46.4202 41.4644C46.8742 41.0311 47.0444 40.6168 47.0066 39.9952C46.8553 37.0757 47.1769 34.2315 48.1984 31.4815C49.882 26.9044 53.306 24.3616 57.9597 23.288C60.627 22.6853 63.3322 22.5534 66.0563 22.8548C67.1535 22.9678 67.948 23.6459 68.0804 24.7007C68.5155 28.5808 68.2318 32.4044 66.6427 36.0209C64.751 40.3154 61.2513 42.5757 56.7679 43.3856C54.7816 43.7435 52.7385 43.7435 50.7144 43.8376C50.2415 43.8565 49.882 43.9507 49.5415 44.2897C47.366 46.4746 45.1905 48.6596 42.9772 50.8257C42.6178 51.1835 42.4475 51.5226 42.4475 52.05C42.5043 53.6133 42.4854 55.1579 42.4854 56.74Z" fill="white"/>
<path d="M31.5131 75.7825C29.7538 75.7825 28.0134 75.7825 26.2352 75.7825C26.1406 75.4246 26.046 75.1044 25.9514 74.7653C24.5326 69.7927 20.0303 66.3458 14.8659 66.3081C11.5554 66.2705 8.26378 66.3081 4.95326 66.2893C4.70734 66.2893 4.44249 66.2893 4.13982 66.2893C4.13982 65.2345 4.06415 64.2174 4.15874 63.2379C4.27224 62.1266 5.19919 61.1095 6.27747 61.0907C10.4203 61.0718 14.6011 60.5821 18.6872 61.5051C25.4406 63.0308 30.5861 68.7379 31.532 75.5753C31.5509 75.5941 31.532 75.6506 31.5131 75.7825Z" fill="white"/>
<path d="M21.7894 75.764C21.5435 75.7829 21.3543 75.8017 21.1651 75.8017C16.4926 75.8017 11.8389 75.8017 7.16636 75.8017C5.38814 75.8017 4.19635 74.8599 4.12069 73.3531C4.06393 72.449 4.12069 71.526 4.12069 70.5843C4.27202 70.5654 4.40444 70.5277 4.53686 70.5277C7.99872 70.5277 11.4606 70.4901 14.9224 70.5466C17.987 70.5843 20.749 72.6373 21.7137 75.5003C21.7516 75.5569 21.7516 75.6134 21.7894 75.764Z" fill="white"/>
</svg>
