<svg width="70" height="66" viewBox="0 0 70 66" fill="none" xmlns="http://www.w3.org/2000/svg">
<g clip-path="url(#clip0_0_270)">
<path d="M68.0057 17.0373V51.2997C67.6736 51.9588 67.0874 51.9984 66.4448 51.9984C54.431 51.9918 42.4195 51.9918 30.4102 51.9984H5.40192C3.63174 51.9984 3.01401 51.3755 3.01401 49.6042V12.4466C3.01401 11.4958 3.25147 11.2585 4.21129 11.2585C7.21472 11.2585 10.2182 11.2585 13.2216 11.2585C14.2877 11.2585 14.4869 11.453 14.4869 12.5026C14.4869 16.0509 14.4869 19.598 14.4869 23.144V23.8724C14.8323 23.7306 15.0648 23.64 15.294 23.5428C20.6311 21.2183 25.9676 18.8933 31.3036 16.5677C32.3797 16.0997 32.9957 16.4903 33.0024 17.6437C33.0107 19.3228 33.0024 21.0019 33.0024 22.681C33.0024 22.8985 33.0207 23.1177 33.0339 23.411C33.3146 23.2989 33.5089 23.2264 33.6982 23.1457L47.9127 16.9467C48.2598 16.7951 48.6052 16.6369 48.9589 16.5002C49.8639 16.1492 50.475 16.543 50.5016 17.4888C50.5132 17.9288 50.5016 18.3704 50.5016 18.8071C50.5016 20.3131 50.5016 21.8176 50.5016 23.4093C50.7922 23.2923 50.9997 23.2132 51.2123 23.1242C56.2206 20.9426 61.2283 18.7609 66.2355 16.5793C67.1239 16.2003 67.4594 16.2876 68.0057 17.0373ZM26.3999 36.6888C26.3999 35.5156 26.4099 34.3424 26.3999 33.1691C26.39 32.4079 26.0894 32.0915 25.3222 32.0783C23.9716 32.0574 22.6205 32.0574 21.2687 32.0783C20.4833 32.0898 20.1628 32.4276 20.1595 33.2153C20.1495 35.4782 20.1495 37.7412 20.1595 40.0042C20.1595 40.8281 20.4833 41.1444 21.3219 41.1576C22.6326 41.1719 23.9423 41.1719 25.2508 41.1576C26.1376 41.1477 26.4033 40.8643 26.4132 39.9613C26.4066 38.8688 26.3999 37.7797 26.3999 36.6888ZM43.8991 36.6262C43.8991 35.4728 43.8991 34.3193 43.8991 33.1659C43.8991 32.4342 43.6002 32.0948 42.8828 32.08C41.4891 32.0525 40.0953 32.0525 38.7015 32.08C37.9841 32.0931 37.667 32.4375 37.6636 33.1494C37.6559 35.4563 37.6559 37.7632 37.6636 40.0701C37.6636 40.8182 37.9825 41.1411 38.748 41.1527C40.0975 41.1735 41.4492 41.1735 42.8031 41.1527C43.6035 41.1411 43.8925 40.8231 43.8991 40.0223C43.9057 38.8903 43.8991 37.7582 43.8991 36.6262V36.6262ZM61.4016 36.6262C61.4016 35.4728 61.4016 34.3193 61.4016 33.1659C61.4016 32.4392 61.096 32.0915 60.3837 32.0767C58.9888 32.047 57.5944 32.047 56.2007 32.0767C55.4766 32.0898 55.1694 32.4244 55.1661 33.1444C55.1562 35.4513 55.1562 37.7582 55.1661 40.0651C55.1661 40.8264 55.47 41.1395 56.2405 41.151C57.5922 41.1719 58.9439 41.1719 60.2956 41.151C61.0927 41.1395 61.3966 40.8215 61.4016 40.0239C61.4082 38.8936 61.4016 37.7615 61.4016 36.6295V36.6262Z" fill="white"/>
<path d="M8.75797 8.50182C7.19371 8.50182 5.62944 8.50182 4.06518 8.50182C3.23489 8.50182 3.01237 8.26289 3.00573 7.44888C2.99909 6.63487 3.00573 5.81263 3.00573 4.99368C3.00573 4.29007 3.25482 4.005 3.93897 4.005C7.15219 3.99182 10.3654 4.005 13.5703 4.005C14.1615 4.005 14.4654 4.31645 14.467 4.90636C14.467 5.7665 14.4787 6.62663 14.467 7.48678C14.4554 8.27771 14.2329 8.50182 13.4408 8.50677C11.8865 8.51501 10.3222 8.50182 8.75797 8.50182Z" fill="white"/>
</g>
<defs>
<clipPath id="clip0_0_270">
<rect width="65" height="48" fill="white" transform="translate(3.00073 4.00006)"/>
</clipPath>
</defs>
</svg>
