<svg width="68" height="71" viewBox="0 0 68 71" fill="none" xmlns="http://www.w3.org/2000/svg">
<path d="M47.6021 0.404175C48.7861 0.954237 49.2051 1.88934 49.114 3.17282C49.0412 4.10793 49.0958 5.04303 49.0958 5.99648C44.9971 5.99648 40.9712 5.99648 36.9089 5.99648C36.9089 4.65799 36.8542 3.30117 36.9271 1.94435C36.9818 1.15593 37.6922 0.770883 38.3298 0.404175C41.4266 0.404175 44.5234 0.404175 47.6021 0.404175Z" fill="white"/>
<path d="M67.13 46.2796C68.2047 56.0707 65.1079 64.0466 57.3476 70.0606C56.8922 70.4273 56.1818 70.6473 55.5988 70.6473C47.201 70.684 38.7849 70.684 30.387 70.6473C29.8041 70.6473 29.0936 70.4273 28.6382 70.0789C21.4609 64.56 18.109 57.2441 18.6737 48.1498C18.7102 47.5447 18.8013 46.9396 18.8741 46.2796C34.9412 46.2796 50.9718 46.2796 67.13 46.2796Z" fill="white"/>
<path d="M66.0008 42.0989C50.626 42.0989 35.3423 42.0989 19.9857 42.0989C20.0768 41.8239 20.1314 41.6038 20.2225 41.3655C22.2992 36.0849 25.7239 31.9411 30.6242 29.0808C32.9559 27.7239 34.9051 26.0554 35.7977 23.4151C36.1074 22.5167 36.3442 21.5632 36.3806 20.6098C36.4717 18.5196 36.3988 16.411 36.3988 14.2841C36.2167 14.2291 36.0527 14.1741 35.8888 14.1007C34.978 13.734 34.4132 12.7989 34.5772 11.8638C34.7411 10.9104 35.5244 10.1403 36.5081 10.1403C40.8437 10.1219 45.1792 10.1219 49.533 10.1403C50.5167 10.1403 51.3 10.9104 51.4458 11.8821C51.5915 12.8172 51.045 13.7524 50.116 14.1191C49.952 14.1924 49.7698 14.2474 49.697 14.2657C49.697 16.6677 49.5148 19.033 49.7334 21.3616C50.0249 24.5152 51.7372 26.9355 54.4697 28.494C58.1313 30.5843 61.1917 33.2979 63.487 36.8733C64.4889 38.4868 65.3268 40.2104 66.0008 42.0989Z" fill="white"/>
<path d="M22.3537 70.0791C20.8964 70.2808 19.5848 70.5742 18.255 70.6292C11.5331 70.9225 5.90411 68.5389 1.4046 63.515C0.621279 62.6349 0.621279 61.5715 1.4046 60.6547C3.18983 58.6011 5.28475 56.9509 7.744 55.7041C8.32693 56.2359 8.89164 56.7859 9.49279 57.3176C11.5331 59.1329 13.9376 60.398 16.2694 61.7732C16.8341 62.1032 17.2349 62.5249 17.5263 63.13C18.6193 65.4036 20.0402 67.4755 21.7162 69.3457C21.8983 69.5474 22.0623 69.7307 22.3537 70.0791Z" fill="white"/>
<path d="M15.1212 56.309C11.8422 54.3288 9.38292 51.7802 7.59769 48.5898C5.64852 45.1061 4.77412 41.329 4.95628 37.3319C5.02915 35.6817 5.73959 34.9483 7.36087 34.8933C10.7492 34.7466 14.0099 35.37 17.0885 36.7818C17.2707 36.8735 17.4347 36.9652 17.6533 37.0752C14.6111 43.1442 13.7367 49.5066 15.1212 56.309Z" fill="white"/>
</svg>
