<svg width="66" height="66" viewBox="0 0 66 66" fill="none" xmlns="http://www.w3.org/2000/svg">
<path d="M34.9456 66H31.0706C30.9073 65.952 30.7405 65.9164 30.5717 65.8935C25.4051 65.5286 20.5808 64.0533 16.1747 61.3527C7.6175 56.1145 2.3621 48.5616 0.51343 38.681C0.282547 37.4445 0.167914 36.1854 0 34.9376V31.0716C0.0403641 30.8423 0.0855752 30.6163 0.119481 30.3871C0.32453 28.9666 0.442391 27.5267 0.747543 26.1272C2.47997 18.203 6.55512 11.7106 13.0134 6.82116C21.0361 0.74686 30.0793 -1.27898 39.9411 0.777529C47.8346 2.42242 54.2509 6.55966 59.1543 12.9391C64.4533 19.8269 66.6588 27.672 65.8306 36.3065C65.1573 43.3009 62.44 49.4785 57.7787 54.7505C52.6686 60.531 46.3008 64.1307 38.6914 65.4851C37.4562 65.7062 36.1969 65.8305 34.9456 66ZM35.0344 5.61534C34.7405 5.59597 34.4919 5.57337 34.2433 5.56369C26.8599 5.27636 20.3677 7.56532 14.8475 12.4516C9.32733 17.3378 6.29841 23.5251 5.65904 30.8682C5.63967 31.0812 5.8205 31.3524 5.98196 31.5316C6.74564 32.3387 7.62881 33.0409 8.29724 33.9142C9.07384 34.9311 9.61956 36.1241 10.3752 37.1604C10.6723 37.5656 11.2341 37.861 11.7346 38.0127C12.466 38.2355 13.2572 38.2581 14.0144 38.4114C15.9293 38.8004 16.7995 40.1322 16.4362 42.0515C16.1989 43.3154 15.4837 44.3356 14.7829 45.3638C14.2437 46.1532 13.7981 46.9781 13.79 47.9692C13.7803 49.4091 13.769 50.8473 13.79 52.2872C13.7984 52.4936 13.8857 52.6888 14.0338 52.8328C15.3093 53.8821 16.5299 55.0233 17.9087 55.9241C23.9746 59.8902 30.6266 61.3527 37.7678 60.0565C46.564 58.4616 53.0642 53.5657 57.3492 45.7739C59.8308 41.254 60.798 36.3613 60.4444 31.2346C60.3201 29.4154 59.9229 27.6139 59.6371 25.6865C58.9057 26.2095 58.3745 26.6438 57.7949 26.9957C56.3159 27.8948 55.1228 28.2015 53.6132 26.7406C53.2725 26.4178 52.8479 26.1708 52.4604 25.8899C52.5097 26.285 52.6435 26.6649 52.8527 27.0037C53.9167 28.8278 55.3811 30.3032 56.9618 31.672C57.9579 32.5357 58.0128 33.1797 57.2007 34.1983C56.4645 35.1216 55.6879 36.0224 55.0517 37.0103C54.5028 37.8658 53.8747 38.7956 53.731 39.7544C53.5244 41.1378 52.9657 42.1758 51.9259 43.0297C51.6115 43.2744 51.3579 43.5886 51.1851 43.9476C51.0123 44.3066 50.9249 44.7007 50.9298 45.0991C50.9316 45.8321 50.7797 46.5574 50.4838 47.228C50.1879 47.8987 49.7546 48.4998 49.2119 48.9926C47.4358 50.6536 45.2691 51.5495 42.9748 52.1904C42.7012 52.2706 42.4086 52.2581 42.1429 52.1548C41.8771 52.0514 41.653 51.863 41.5055 51.6189C40.6514 50.313 39.7134 49.0362 39.053 47.6383C38.3039 46.0483 38.1909 44.3001 39.2629 42.7811C39.9959 41.7448 39.9685 40.7891 39.5697 39.6979C39.2048 38.6939 38.8238 37.6834 38.6106 36.6422C38.3878 35.5591 38.4605 35.4041 37.3497 35.2185C35.2798 34.8747 33.1873 34.6761 31.1078 34.3985C29.9243 34.237 28.7005 34.187 27.5735 33.8351C26.0752 33.367 25.0144 32.3064 24.8142 30.6664C24.6863 29.492 24.6286 28.3109 24.6415 27.1296C24.6415 24.5711 25.8508 22.6679 27.9497 21.2959C30.4184 19.6816 33.197 19.2635 36.0726 19.2668C37.3655 19.2691 38.6407 19.5672 39.8006 20.1385C40.2022 20.3445 40.6418 20.4659 41.0922 20.4952C43.1912 20.5614 45.2901 20.5888 47.3987 20.5888C47.8716 20.5761 48.3394 20.4872 48.784 20.3257C49.5913 20.0513 49.7947 19.2087 49.2183 18.5727C49.0119 18.3554 48.7714 18.1733 48.5063 18.0335C46.9531 17.1683 45.232 16.8939 43.5012 16.7131C41.4959 16.5032 39.4647 16.2417 37.4966 16.8955C36.4019 17.2603 35.3799 17.8414 34.2885 18.2159C33.1211 18.6146 31.9167 18.9149 30.7154 19.2022C29.829 19.4121 29.1897 18.9375 28.828 18.1917C28.5657 17.6559 28.4131 17.073 28.3792 16.4774C28.321 15.094 29.0105 13.9673 29.8436 12.9261C31.0077 11.4733 32.506 10.4515 34.1222 9.57017C34.6065 9.30867 35.0344 8.96161 35.4913 8.65168C34.1641 6.88088 34.1415 6.73883 35.0344 5.61534V5.61534Z" fill="white"/>
</svg>
