<svg width="162" height="35" viewBox="0 0 162 35" fill="none" xmlns="http://www.w3.org/2000/svg">
<g clip-path="url(#clip0_0_164)">
<path d="M27.5983 14.8434C28.0508 17.2032 27.5403 19.6444 26.1786 21.6321C24.817 23.6197 22.7153 24.9918 20.334 25.4475C19.1528 25.6667 17.9394 25.6526 16.7637 25.4061C15.588 25.1595 14.473 24.6853 13.4828 24.0107C12.4927 23.3361 11.6469 22.4744 10.994 21.4751C10.3411 20.4758 9.89397 19.3586 9.67832 18.1877C9.22264 15.8286 9.73091 13.3869 11.0915 11.3987C12.4522 9.4105 14.5539 8.03836 16.9352 7.58361C18.1169 7.36434 19.3307 7.37836 20.507 7.62485C21.6832 7.87134 22.7987 8.34545 23.7894 9.01998C24.7801 9.69451 25.6266 10.5562 26.2802 11.5555C26.9339 12.5549 27.3818 13.6722 27.5983 14.8434Z" fill="white" stroke="#00365F" stroke-width="0.39" stroke-miterlimit="10"/>
<path fill-rule="evenodd" clip-rule="evenodd" d="M11.3098 11.1972C12.2247 10.9716 13.169 9.22487 13.9921 9.08658H14.1721C14.444 9.08658 14.613 9.3777 15.0613 9.40317L15.234 9.5924C15.4214 9.51235 15.6015 9.51962 15.7007 9.34495L16.4356 9.38134C17.108 8.69357 18.6402 8.9483 18.9562 7.97304L19.4081 7.99852C19.5037 7.91118 19.8858 7.47814 20.0658 7.48906C18.23 7.19986 16.3487 7.48346 14.6829 8.30056C13.948 8.71176 12.346 9.71613 11.5633 10.7605L11.4163 11.0043L11.3098 11.1972ZM18.688 12.9367L18.6586 13.5662C18.7431 13.5662 19.0039 13.7627 19.0995 13.77C19.2723 13.7031 19.4597 13.6818 19.6433 13.7081L19.816 13.8937C19.7168 13.9811 19.5367 14.0611 19.4485 14.1448C19.3603 14.0538 19.3604 14.0538 19.1766 14.1448H18.9966C18.7284 14.0429 18.4565 14.0284 18.1956 13.9265H18.1C17.7686 13.9566 17.4345 13.9395 17.108 13.8755L17.0124 13.9629C16.8361 13.9629 16.4907 13.5735 16.318 13.4752C16.318 13.3843 16.4135 13.3006 16.4172 13.2096C16.329 13.2096 16.1563 13.0167 16.0497 13.0131C16.0087 12.9534 15.9541 12.9042 15.8902 12.8694C15.8264 12.8347 15.7551 12.8153 15.6823 12.8129V12.6346C15.3956 12.7912 15.0835 12.8971 14.76 12.9476C14.2052 13.1004 13.3564 13.7809 12.8163 13.7482C12.2394 14.4432 12.21 14.9854 12.1586 15.9789C12.4966 16.4447 12.6362 17.1725 12.9779 17.6419C13.5208 17.5962 14.0665 17.5962 14.6094 17.6419L14.5836 18.0931C14.7893 18.1502 15.0051 18.1614 15.2157 18.1259C15.2965 18.3115 15.1936 18.5771 15.1752 18.9337C15.5133 19.4032 15.9652 19.516 15.9101 20.4185L15.7117 20.6805C15.6602 21.7722 16.7001 22.6273 17.2108 23.3733C17.6628 23.3988 18.1221 23.1514 18.6806 23.1768C18.8054 22.8469 19.0452 22.572 19.3567 22.4017L19.3824 21.8595C19.9262 21.885 20.323 21.1827 20.5325 20.6514C20.4443 20.5567 20.2716 20.4585 20.1834 20.3639C20.1834 20.0946 20.3047 19.8253 20.3157 19.6361C20.4259 19.1921 22.1161 18.104 22.0243 18.0058C22.05 17.5546 22.0463 17.6419 22.3293 17.3944L21.7855 17.3653C21.5981 17.5364 21.2416 17.4272 21.0506 17.4163C20.9547 17.2031 20.8285 17.0045 20.6758 16.8268C20.595 16.6448 20.5986 16.5538 20.5178 16.3682C20.437 16.2736 20.1504 16.1717 20.0805 16.0771C19.9997 15.8879 20.0805 15.7132 20.0181 15.5313C20.0181 15.3493 19.8527 15.2511 19.7682 15.0655C19.6947 14.7926 19.3493 14.4141 19.364 14.1412C19.6359 14.1412 19.7829 14.7962 19.974 14.6252L20.3083 15.2947L20.3635 15.9279L20.9697 16.4992L21.2086 17.1434C22.0206 17.1834 22.6232 16.0516 23.3471 16.0808L23.4573 15.7169C23.4573 15.6295 23.3801 15.4439 23.3838 15.353H23.1119L22.9392 15.1601C22.4873 15.1383 21.8369 15.1965 21.5209 14.6397C21.3372 14.6397 21.2637 14.2758 21.1829 14.0793C21.4658 13.9155 21.892 14.476 22.05 14.8471C22.4174 14.8471 22.851 15.1565 23.2221 14.9963L23.3912 15.1856C23.5178 15.1081 23.6405 15.0243 23.7586 14.9345H24.0268C24.115 15.0291 24.3722 15.2984 24.5486 15.3202C24.5486 15.4985 24.7066 15.7787 24.7029 15.8733C24.739 15.4805 24.7291 15.0849 24.6735 14.6943C24.8462 14.9745 25.0814 15.5313 24.9785 15.786C24.9785 15.786 25.1512 15.9789 25.2467 15.9789C25.2247 16.2518 25.2871 16.8886 25.5554 16.9032C25.56 16.9945 25.5973 17.0813 25.6606 17.148C25.7238 17.2146 25.809 17.2568 25.9008 17.2671C25.9008 17.0888 26.0036 17.0014 26.011 16.9032C25.9081 17.0778 26.1139 16.6339 26.1139 16.6339L26.0367 16.361L25.9889 15.5458C26.0808 15.4585 26.3564 15.2911 26.4593 15.2074C26.3784 15.0218 26.3784 15.0218 26.4813 14.7598C26.5732 14.7598 26.6577 14.8544 26.8487 14.8653C26.8336 15.0188 26.878 15.1722 26.9728 15.2945C27.0676 15.4168 27.2059 15.4989 27.3595 15.524C27.3595 15.342 27.275 15.342 27.3852 15.0728H27.6534C27.4947 14.0876 27.1771 13.1342 26.7128 12.2489C26.0803 11.0417 25.1719 9.99745 24.0599 9.19939C23.4324 8.68272 22.717 8.28099 21.9471 8.01307C21.9471 8.01307 21.8002 7.90027 21.7597 7.91846C21.7193 7.93666 21.7597 7.91846 21.6311 8.06766C21.6032 8.1028 21.5664 8.13005 21.5245 8.14666C21.4826 8.16327 21.437 8.16865 21.3923 8.16227C21.4731 8.34786 21.3923 8.24961 21.4731 8.4352H21.2012C21.2012 8.70449 21.3556 8.89372 21.3519 8.98469C21.26 9.06839 20.9844 8.98469 20.7236 8.95194C20.7236 8.77363 20.6574 8.40609 20.3855 8.39517C20.3855 8.48251 20.2826 8.66082 20.2753 8.75907C20.3635 8.85369 20.5325 9.12297 20.617 9.2285C20.2496 9.2285 19.9593 9.64699 19.5147 9.4432C19.7168 9.00288 18.7284 8.86096 18.5483 8.85369L18.3573 9.02472C18.1809 8.92283 17.424 9.60696 17.2329 9.78163L17.3982 10.1455C18.1331 9.73432 18.1331 9.91628 18.4234 9.56693C18.5998 9.56693 18.6402 9.5269 18.7908 9.65427C18.9415 9.78163 18.4712 10.1237 18.4712 10.2001C18.4712 10.2765 18.5557 10.3857 18.5483 10.4767C18.3609 10.5567 18.089 10.6295 18.0817 10.7241C17.9898 10.7241 17.909 10.6222 17.8171 10.6186C17.8171 10.5276 18.0119 10.3566 18.0155 10.2547C17.931 10.1565 17.931 10.1565 17.9384 10.0691C17.8465 10.0691 17.8355 10.1528 17.7473 10.1492H17.5672C17.5672 10.3311 17.5672 10.3311 17.5672 10.4221C17.4754 10.5058 17.2843 10.6768 17.1998 10.6732C17.3872 10.5022 16.7442 10.7387 16.6523 10.7351L16.3657 10.9934C16.0688 10.9307 15.7638 10.9147 15.4618 10.9461C15.4632 10.9928 15.4813 11.0376 15.513 11.0723C15.5446 11.1069 15.5877 11.1293 15.6345 11.1353C15.6233 11.3023 15.5499 11.4591 15.4288 11.5757C15.3406 11.5757 15.3442 11.4811 15.1569 11.5757L14.8188 11.1099C14.7679 11.155 14.7032 11.1819 14.6351 11.1863C14.6351 11.4629 14.5175 11.7249 14.5065 11.9141L14.2199 12.278L14.1978 12.6419C14.2897 12.6419 14.3779 12.7365 14.4661 12.7474C14.7416 12.6674 14.9731 12.8311 15.2487 12.8457C15.2487 12.7547 15.4728 12.5254 15.4765 12.4381C15.6602 12.4381 15.7448 12.54 15.9248 12.5473C16.1159 12.3799 16.3143 12.0269 16.5862 12.0378L16.9206 12.5982C16.8837 12.6315 16.8552 12.6728 16.8373 12.719C16.8194 12.7651 16.8127 12.8147 16.8177 12.8639C16.8177 12.8639 16.634 12.8639 16.7148 13.0385C16.7148 13.2205 17.0602 13.4024 17.141 13.5116C17.2402 13.4279 17.435 13.0749 17.6224 12.9949L17.6444 12.631L17.8098 12.8202V13.1841C17.9935 13.1841 18.1588 13.4716 18.1478 13.6535C18.2319 13.31 18.3708 12.9821 18.5593 12.6819C18.6512 12.6819 18.732 12.8712 18.8202 12.8748L18.9194 12.7911C19.0076 12.7911 19.0003 12.8821 19.0958 12.8893C19.1226 12.7376 19.1607 12.588 19.2097 12.4418C19.4779 12.4418 19.647 12.6455 19.9189 12.6601C19.9679 12.5139 20.006 12.3643 20.0328 12.2125L20.2238 12.0415C20.0254 12.4054 20.7272 12.8821 20.8962 13.0713C20.7056 13.1269 20.5049 13.1406 20.3083 13.1113L20.1393 12.9221C19.9239 12.9234 19.7104 12.8826 19.511 12.802L19.2207 13.0567C19.0444 13.0567 18.9598 12.9512 18.8533 12.9476L18.688 12.9367ZM22.2778 13.3115L21.8295 13.2933C21.8165 13.1629 21.8547 13.0326 21.9361 12.9294L21.6789 12.6419H21.407C21.3216 12.569 21.2623 12.4707 21.238 12.3617L21.3335 12.2744C21.429 12.2744 21.6017 12.3799 21.7009 12.3872C21.7295 12.2058 21.7675 12.0261 21.8148 11.8486C21.8242 11.9433 21.8503 12.0357 21.892 12.1215C22.0721 12.1215 22.0721 12.1215 22.1602 12.227C22.1238 12.2606 22.0956 12.302 22.0778 12.3481C22.0599 12.3941 22.053 12.4436 22.0574 12.4927C22.1455 12.4927 22.1382 12.5873 22.2301 12.6819C22.1198 12.9476 22.3917 12.9585 22.4762 13.1441L22.2778 13.3115ZM10.0201 19.3559C10.3136 19.1052 10.6283 18.88 10.9607 18.6827C10.7473 18.418 10.5557 18.1369 10.3875 17.842V17.4781C10.2946 17.4558 10.2056 17.4202 10.123 17.3726L9.95025 17.2744C9.86691 17.0047 9.72522 16.7564 9.53505 16.5466C9.52358 17.5044 9.68792 18.4563 10.0201 19.3559ZM21.1975 22.1834C21.1094 22.1834 20.8301 22.0742 20.7493 22.0706C20.7493 21.9832 20.8522 21.8959 20.9477 21.8086L20.7713 21.623V21.4374L20.9661 21.2663L21.3335 21.2882C21.5246 21.1171 22.0059 20.6004 22.2741 20.615C22.1786 20.6987 21.9949 20.7787 21.9067 20.8661L22.0757 21.0516C21.9951 21.2199 21.9537 21.404 21.9545 21.5902C21.587 21.8413 21.3813 22.1943 21.2012 22.1834H21.1975ZM27.5359 18.3515L27.4881 17.8966L26.9737 17.3289L26.9994 16.7867C26.8939 16.6573 26.8392 16.4945 26.8451 16.3282C27.0307 16.5103 27.2351 16.6725 27.455 16.8122L27.433 17.1761L27.6975 17.3726C27.6836 17.7054 27.6293 18.0352 27.5359 18.3551V18.3515Z" fill="#00365F"/>
<path d="M10.3177 20.1637C14.727 24.4359 22.8584 24.8617 26.507 21.088L10.3177 20.1637ZM9.74817 14.5887C9.01329 20.1309 28.4581 20.7023 27.7196 15.5312L9.74817 14.5887ZM11.0489 11.5283C10.7108 14.5705 27.1464 15.9752 26.6944 12.3507L11.0489 11.5283ZM13.937 8.76996C11.7544 10.5531 26.2168 11.4119 24.1444 9.32672L13.937 8.76996ZM18.2911 25.6077L19.1252 7.55816L18.2911 25.6077ZM19.1252 7.47083C22.3807 7.63458 24.8977 11.8122 24.6368 16.8376C24.4751 21.7794 21.5393 25.7714 18.2801 25.6077C15.0209 25.4439 12.5921 21.2663 12.7685 16.3245C13.0257 11.2991 15.8623 7.39441 19.1362 7.47083H19.1252Z" stroke="#00365F" stroke-width="0.39" stroke-linecap="round" stroke-linejoin="round"/>
<path d="M13.5915 25.4251C11.9955 24.5314 10.668 23.2333 9.74538 21.6641C8.82271 20.0949 8.33797 18.3109 8.34086 16.495C8.33748 15.1517 8.60148 13.8209 9.11774 12.5787C9.63401 11.3366 10.3924 10.2073 11.3496 9.25562C12.3068 8.30391 13.444 7.54839 14.6963 7.03224C15.9485 6.51608 17.2912 6.24943 18.6475 6.24752C20.1144 6.24659 21.5645 6.55768 22.8995 7.15976C24.2345 7.76183 25.4234 8.64085 26.3858 9.73734L31.1 5.6107C29.5491 3.85004 27.6351 2.43912 25.487 1.47304C23.3389 0.50695 21.0067 0.00815239 18.6475 0.0102606C14.2407 0.0189391 10.0178 1.76025 6.90692 4.85142C3.79604 7.94259 2.05182 12.1306 2.05767 16.495C2.05461 19.6622 2.97447 22.7629 4.70689 25.4251H13.5915ZM35.2263 16.495C35.228 14.7784 34.9602 13.0719 34.4327 11.4368C34.2857 10.9855 34.1204 10.5488 33.9403 10.1158C33.7603 9.68275 33.2899 8.77663 33.2899 8.77663H29.814L28.1605 12.5539C28.2671 12.8123 28.3663 13.0779 28.4545 13.3472C28.7851 14.3631 28.9524 15.424 28.9505 16.4913C28.9585 19.1807 27.8926 21.7641 25.9853 23.6784C24.0959 25.5932 21.5195 26.6918 18.8165 26.7351H0V32.9906H18.8165C23.1877 32.9473 27.3637 31.1915 30.4313 28.1071C33.5132 25.014 35.2366 20.8404 35.2263 16.495ZM33.2789 26.7497C31.2993 29.5418 28.5524 31.7128 25.3643 33.0052H37.2877V26.7388L33.2789 26.7497Z" fill="url(#paint0_linear_0_164)"/>
<path d="M45.566 29.5269V33.286H44.9818V30.0727H43.4827V33.286H42.9021V29.5269H45.566Z" fill="white"/>
<path d="M46.3561 30.7569C46.3561 30.2729 46.3561 29.8871 46.3267 29.5269H46.8521L46.8815 30.171C46.9796 29.9526 47.14 29.7673 47.3431 29.638C47.5461 29.5087 47.7829 29.441 48.0242 29.4432C48.8069 29.4432 49.3911 30.211 49.3911 31.3536C49.3911 32.7037 48.6856 33.3697 47.9213 33.3697C47.7171 33.3721 47.5161 33.3183 47.3409 33.2142C47.1657 33.1101 47.0232 32.9598 46.9293 32.7801V34.8216H46.3524L46.3561 30.7569ZM46.9329 31.7576C46.9355 31.8514 46.9441 31.945 46.9587 32.0378C46.9911 32.2506 47.0965 32.4459 47.257 32.591C47.4175 32.7361 47.6235 32.8221 47.8405 32.8347C48.4615 32.8347 48.8216 32.2452 48.8216 31.3791C48.8216 30.6258 48.4799 29.9817 47.8589 29.9817C47.6362 30.0029 47.4273 30.0984 47.2665 30.2524C47.1056 30.4064 47.0023 30.6099 46.9734 30.8296C46.9501 30.9214 46.9366 31.0153 46.9329 31.1098V31.7576Z" fill="white"/>
<path d="M52.8964 31.3757C52.8964 32.7658 52.0697 33.3699 51.2907 33.3699C50.4162 33.3699 49.7475 32.642 49.7475 31.4375C49.7475 30.1784 50.453 29.4434 51.3459 29.4434C52.2387 29.4434 52.8964 30.2148 52.8964 31.3757ZM50.3244 31.4157C50.3244 32.2381 50.7286 32.8713 51.3018 32.8713C51.875 32.8713 52.2828 32.2563 52.2828 31.4157C52.2828 30.7789 52.0073 29.9601 51.3165 29.9601C50.6257 29.9601 50.3391 30.7025 50.3391 31.4157H50.3244Z" fill="white"/>
<path d="M55.9205 29.527V32.7621H56.2548L56.2218 34.4615H55.7625L55.7331 33.2679H53.5027L53.477 34.4615H53.0103L52.981 32.7621H53.2565C53.3967 32.5212 53.5042 32.263 53.5762 31.9943C53.7038 31.5046 53.7668 31.0007 53.7636 30.495V29.5161L55.9205 29.527ZM54.289 30.6697C54.2914 31.1404 54.2359 31.6096 54.1237 32.0671C54.057 32.3069 53.9697 32.5406 53.8628 32.7657H55.3326V30.0474H54.2743L54.289 30.6697Z" fill="white"/>
<path d="M56.9824 29.5269L57.6879 31.7503C57.7613 31.9977 57.8422 32.2925 57.8936 32.5181C57.9561 32.2925 58.0222 32.005 58.103 31.7321L58.7424 29.5269H59.3634L58.4815 32.2052C58.0626 33.4934 57.776 34.1557 57.3792 34.5596C57.1831 34.7746 56.9276 34.9277 56.6443 34.9999L56.4973 34.4286C56.6904 34.3534 56.8655 34.2394 57.0118 34.0938C57.2311 33.8798 57.3993 33.62 57.5041 33.3333C57.5281 33.2813 57.5442 33.2261 57.5519 33.1695C57.5463 33.1086 57.5327 33.0486 57.5115 32.9912L56.321 29.5269H56.9824Z" fill="white"/>
<path d="M60.3187 29.5269V31.1608H60.4583L61.6709 29.5269H62.3837L60.9801 31.2299C61.4982 31.2918 61.8105 31.6957 62.064 32.3689C62.1617 32.6808 62.277 32.987 62.4094 33.286H61.7958C61.6783 33.0374 61.5788 32.7808 61.4982 32.5181C61.2777 31.9104 60.9801 31.6338 60.4326 31.6338H60.3187V33.286H59.7382V29.5269H60.3187Z" fill="white"/>
<path d="M65.055 29.5269V30.0727H64.0335V33.286H63.4566V30.0727H62.4498V29.5269H65.055Z" fill="white"/>
<path d="M65.9699 29.5269V30.8078C66.1428 30.7734 66.319 30.7576 66.4953 30.7605C67.1861 30.7605 67.8879 31.0953 67.8879 32.0196C67.8965 32.1796 67.8711 32.3397 67.8135 32.4894C67.756 32.6392 67.6674 32.7754 67.5536 32.8893C67.1954 33.1971 66.7298 33.3538 66.2565 33.326C65.9666 33.3253 65.677 33.3071 65.3893 33.2714V29.5269H65.9699ZM65.9699 32.802C66.1038 32.8209 66.2388 32.8306 66.3741 32.8311C66.8224 32.8311 67.3074 32.6164 67.3074 32.0341C67.3074 31.4519 66.8407 31.2408 66.3998 31.2408C66.2555 31.2392 66.1114 31.2526 65.9699 31.2809V32.802ZM68.8727 29.5269V33.286H68.2921V29.5269H68.8727Z" fill="white"/>
<path d="M73.5649 29.5269V33.286H72.977V30.0727H71.4778V33.286H70.8973V29.5269H73.5649Z" fill="white"/>
<path d="M74.8876 29.5269V31.1135C74.8876 31.7103 74.8876 32.0814 74.8546 32.62H74.8766C75.0714 32.1688 75.1816 31.8922 75.3947 31.4701L76.4015 29.5269H77.0886V33.286H76.5264V31.6957C76.5264 31.0807 76.5264 30.7605 76.5668 30.1564H76.5485C76.3427 30.6368 76.2031 30.9424 76.0157 31.3209C75.707 31.9031 75.3543 32.6273 75.0089 33.286H74.3218V29.5269H74.8876Z" fill="white"/>
<path d="M80.0318 29.5269V30.0727H79.025V33.286H78.4481V30.0727H77.4413V29.5269H80.0318Z" fill="white"/>
<path d="M82.5965 32.3981C82.5924 32.6998 82.6109 33.0015 82.6516 33.3005H82.1189L82.0711 32.8275C81.9686 32.9967 81.8238 33.1368 81.6507 33.2344C81.4775 33.3319 81.2819 33.3835 81.0827 33.3842C80.9437 33.3824 80.8067 33.352 80.6802 33.2949C80.5537 33.2378 80.4406 33.1554 80.348 33.0527C80.2555 32.9501 80.1854 32.8295 80.1424 32.6986C80.0993 32.5678 80.0842 32.4295 80.0979 32.2925C80.0979 31.3828 80.7887 30.8879 82.038 30.8952V30.8187C82.038 30.5058 81.9609 29.949 81.3031 29.949C81.0009 29.9516 80.7074 30.0498 80.4654 30.2292L80.3294 29.778C80.6369 29.5571 81.0078 29.4398 81.3877 29.4432C82.3761 29.4432 82.6149 30.2292 82.6149 30.9789L82.5965 32.3981ZM82.038 31.3682C81.3987 31.3682 80.6711 31.4847 80.6711 32.2161C80.6711 32.6564 80.9247 32.8675 81.226 32.8675C81.4076 32.862 81.5824 32.7973 81.7232 32.6835C81.864 32.5697 81.963 32.4131 82.0049 32.2379C82.0253 32.1718 82.0364 32.1033 82.038 32.0342V31.3682Z" fill="white"/>
<path d="M83.945 29.5269V31.0407H85.4772V29.5269H86.0541V33.286H85.4772V31.5865H83.945V33.286H83.3644V29.5269H83.945Z" fill="white"/>
<path d="M87.3879 29.5269V31.1135C87.3879 31.7103 87.3879 32.0814 87.3549 32.62C87.5496 32.1688 87.6635 31.8922 87.8766 31.4701L88.8834 29.5269H89.5668V33.286H89.0194V31.6957C89.0194 31.0807 89.0194 30.7605 89.0598 30.1564H89.0414C88.832 30.6368 88.6923 30.9424 88.5086 31.3209C88.2 31.9031 87.8472 32.6273 87.5018 33.286H86.8257V29.5269H87.3879Z" fill="white"/>
<path d="M92.7488 33.286H92.172V31.7103H91.7384C91.6386 31.7044 91.5387 31.7198 91.4454 31.7556C91.3522 31.7914 91.2679 31.8467 91.1983 31.9178C90.9594 32.1434 90.8712 32.6092 90.7463 32.9767C90.7078 33.0821 90.6636 33.1853 90.614 33.286H89.9857C90.0648 33.1504 90.1312 33.0079 90.1841 32.8603C90.3274 32.4964 90.4046 32.0051 90.6912 31.7249C90.7899 31.6186 90.9175 31.5428 91.0586 31.5065V31.4847C90.8241 31.4645 90.6059 31.3573 90.4479 31.1846C90.2898 31.0118 90.2034 30.7863 90.2062 30.5531C90.2008 30.3925 90.2372 30.2332 90.3118 30.0904C90.3865 29.9477 90.4969 29.8264 90.6324 29.738C90.9605 29.5526 91.3354 29.4642 91.7127 29.4833C92.0594 29.4847 92.4057 29.5103 92.7488 29.5597V33.286ZM92.172 29.9782C92.0116 29.9529 91.8494 29.9407 91.687 29.9418C91.2864 29.9418 90.8125 30.0728 90.8125 30.5932C90.8125 31.1135 91.3232 31.2445 91.6723 31.2445H92.172V29.9782Z" fill="white"/>
<path d="M95.3209 29.5269V31.1135C95.3209 31.7103 95.3209 32.0814 95.2915 32.62H95.3099C95.501 32.1688 95.6149 31.8922 95.828 31.4701L96.8348 29.5269H97.5219V33.286H96.9634V31.6957C96.9634 31.0807 96.9634 30.7605 97.0038 30.1564H96.9818C96.776 30.6368 96.6327 30.9424 96.449 31.3209C96.1403 31.9031 95.7876 32.6273 95.4422 33.286H94.7698V29.5269H95.3209Z" fill="white"/>
<path d="M102.207 29.5269V33.286H101.619V30.0727H100.12V33.286H99.5391V29.5269H102.207Z" fill="white"/>
<path d="M103.529 29.5269V31.1135C103.529 31.7103 103.529 32.0814 103.496 32.62H103.518C103.71 32.1688 103.823 31.8922 104.037 31.4701L105.043 29.5269H105.727V33.286H105.187V31.6957C105.187 31.0807 105.187 30.7605 105.227 30.1564H105.187C104.977 30.6368 104.838 30.9424 104.654 31.3209C104.345 31.9031 103.992 32.6273 103.647 33.286H102.982V29.5269H103.529Z" fill="white"/>
<path d="M107.075 29.5269V32.7619H108.203V29.5378H108.773V32.7619H109.901V29.5378H110.481V32.7619H110.805L110.775 34.4614H110.331L110.305 33.2678H106.513V29.5269H107.075Z" fill="white"/>
<path d="M111.639 31.5322C111.639 32.4565 112.157 32.8349 112.741 32.8349C113.05 32.8461 113.358 32.7798 113.634 32.642L113.733 33.1297C113.401 33.2963 113.033 33.3788 112.66 33.3699C111.668 33.3699 111.073 32.602 111.073 31.4703C111.073 30.3386 111.65 29.4434 112.587 29.4434C113.641 29.4434 113.921 30.5351 113.921 31.2119C113.92 31.319 113.912 31.4259 113.899 31.5322H111.639ZM113.358 31.0409C113.358 30.6078 113.204 29.931 112.546 29.931C111.951 29.931 111.694 30.5678 111.646 31.0409H113.358Z" fill="white"/>
<path d="M114.468 29.5743C114.808 29.5164 115.152 29.4884 115.497 29.4906C116.037 29.4906 116.93 29.5889 116.93 30.4295C116.934 30.6262 116.869 30.8182 116.746 30.9723C116.622 31.1265 116.448 31.2331 116.254 31.2737V31.3065C116.485 31.3277 116.7 31.4362 116.853 31.6096C117.006 31.7829 117.086 32.0079 117.077 32.2381C117.077 33.2242 116.008 33.348 115.376 33.348C115.008 33.348 114.641 33.3152 114.468 33.3006V29.5743ZM115.023 32.8494C115.18 32.8738 115.338 32.8847 115.497 32.8822C115.89 32.8822 116.474 32.773 116.474 32.2308C116.474 31.6886 116.008 31.5685 115.449 31.5685H115.023V32.8494ZM115.023 31.1172H115.475C115.908 31.1172 116.357 30.9717 116.357 30.5277C116.357 30.1638 116.078 29.9782 115.49 29.9782C115.339 29.9788 115.188 29.9886 115.038 30.0073L115.023 31.1172Z" fill="white"/>
<path d="M118.216 29.5269V30.8078C118.389 30.7734 118.565 30.7576 118.741 30.7605C119.432 30.7605 120.134 31.0953 120.134 32.0196C120.143 32.1796 120.117 32.3397 120.06 32.4894C120.002 32.6392 119.914 32.7754 119.8 32.8893C119.442 33.1971 118.976 33.3538 118.503 33.326C118.211 33.325 117.921 33.3068 117.632 33.2714V29.5269H118.216ZM118.216 32.802C118.35 32.821 118.485 32.8307 118.62 32.8311C119.068 32.8311 119.553 32.6164 119.553 32.0341C119.553 31.4519 119.087 31.2408 118.646 31.2408C118.502 31.2392 118.357 31.2526 118.216 31.2809V32.802ZM121.119 29.5269V33.286H120.538V29.5269H121.119Z" fill="white"/>
<path d="M122.239 31.5322C122.239 32.4565 122.758 32.8349 123.342 32.8349C123.651 32.8461 123.958 32.7798 124.235 32.642L124.334 33.1297C124.002 33.2963 123.633 33.3788 123.261 33.3699C122.269 33.3699 121.674 32.602 121.674 31.4703C121.674 30.3386 122.247 29.4434 123.187 29.4434C124.242 29.4434 124.518 30.5351 124.518 31.2119C124.517 31.3189 124.511 31.4258 124.499 31.5322H122.239ZM123.955 31.0409C123.955 30.6078 123.805 29.931 123.143 29.931C122.552 29.931 122.291 30.5678 122.243 31.0409H123.955Z" fill="white"/>
<path d="M126.866 29.5269V31.1135C126.866 31.7103 126.866 32.0814 126.829 32.62H126.851C127.046 32.1688 127.156 31.8922 127.369 31.4701L128.376 29.5269H129.07V33.286H128.512V31.6957C128.512 31.0807 128.512 30.7605 128.548 30.1564C128.343 30.6368 128.203 30.9424 128.016 31.3209C127.711 31.9031 127.354 32.6273 127.009 33.286H126.336V29.5269H126.866Z" fill="white"/>
<path d="M130.419 29.5269V31.0407H131.951V29.5269H132.531V33.286H131.951V31.5865H130.419V33.286H129.838V29.5269H130.419Z" fill="white"/>
<path d="M135.291 29.5269V30.08H133.891V33.286H133.31V29.5269H135.291Z" fill="white"/>
<path d="M135.684 30.7569C135.684 30.2729 135.684 29.8872 135.655 29.5269H136.184L136.209 30.171C136.308 29.952 136.469 29.7664 136.673 29.637C136.876 29.5077 137.114 29.4403 137.356 29.4432C138.135 29.4432 138.719 30.211 138.719 31.3537C138.719 32.7038 138.014 33.3697 137.249 33.3697C137.045 33.3721 136.844 33.3183 136.669 33.2142C136.494 33.1101 136.351 32.9598 136.257 32.7802V34.8217H135.684V30.7569ZM136.265 31.7576C136.265 31.8516 136.274 31.9453 136.29 32.0378C136.321 32.248 136.424 32.4415 136.581 32.5864C136.738 32.7312 136.94 32.8188 137.154 32.8348C137.775 32.8348 138.135 32.2452 138.135 31.3792C138.135 30.6259 137.793 29.9818 137.176 29.9818C136.953 30.0017 136.743 30.0967 136.582 30.2509C136.421 30.4052 136.318 30.6094 136.29 30.8297C136.265 30.9211 136.252 31.0152 136.25 31.1099L136.265 31.7576Z" fill="white"/>
<path d="M139.627 31.5322C139.627 32.4565 140.148 32.8349 140.729 32.8349C141.038 32.8461 141.345 32.7798 141.622 32.642L141.721 33.1297C141.389 33.2963 141.02 33.3788 140.648 33.3699C139.656 33.3699 139.065 32.602 139.065 31.4703C139.065 30.3386 139.638 29.4434 140.575 29.4434C141.629 29.4434 141.908 30.5351 141.908 31.2119C141.908 31.3538 141.908 31.463 141.908 31.5322H139.627ZM141.346 31.0409C141.346 30.6078 141.192 29.931 140.534 29.931C139.939 29.931 139.678 30.5678 139.634 31.0409H141.346Z" fill="white"/>
<path d="M144.991 29.527V32.7621H145.322L145.289 34.4615H144.83L144.804 33.2679H142.57L142.544 34.4615H142.085L142.059 32.7621H142.331C142.471 32.5212 142.579 32.263 142.651 31.9943C142.78 31.505 142.843 31.0008 142.838 30.495V29.5161L144.991 29.527ZM143.36 30.6697C143.361 31.1405 143.304 31.6098 143.191 32.0671C143.127 32.3079 143.04 32.542 142.93 32.7657H144.418V30.0474H143.36V30.6697Z" fill="white"/>
<path d="M146.395 29.5269V31.1135C146.395 31.7103 146.395 32.0814 146.362 32.62H146.38C146.575 32.1688 146.689 31.8922 146.902 31.4701L147.909 29.5269H148.592V33.286H148.034V31.6957C148.034 31.0807 148.034 30.7605 148.074 30.1564H148.056C147.85 30.6368 147.71 30.9424 147.523 31.3209C147.218 31.9031 146.862 32.6273 146.516 33.286H145.844V29.5269H146.395Z" fill="white"/>
<path d="M149.705 31.5322C149.705 32.4565 150.227 32.8349 150.808 32.8349C151.118 32.8455 151.426 32.7792 151.704 32.642L151.8 33.1297C151.468 33.2963 151.099 33.3788 150.727 33.3699C149.735 33.3699 149.143 32.602 149.143 31.4703C149.143 30.3386 149.717 29.4434 150.657 29.4434C151.708 29.4434 151.987 30.5351 151.987 31.2119C151.993 31.3186 151.993 31.4255 151.987 31.5322H149.705ZM151.425 31.0409C151.425 30.6078 151.271 29.931 150.613 29.931C150.021 29.931 149.761 30.5678 149.713 31.0409H151.425Z" fill="white"/>
<path d="M153.119 29.5269V31.0407H154.648V29.5269H155.228V33.286H154.648V31.5865H153.119V33.286H152.538V29.5269H153.119Z" fill="white"/>
<path d="M158.182 29.5269V30.0727H157.176V33.286H156.595V30.0727H155.588V29.5269H158.182Z" fill="white"/>
<path d="M159.094 29.5269V30.8078C159.267 30.7736 159.443 30.7578 159.619 30.7605C160.313 30.7605 161.012 31.0953 161.012 32.0196C161.021 32.1794 160.996 32.3393 160.939 32.4891C160.882 32.6389 160.794 32.7752 160.681 32.8893C160.321 33.1959 159.854 33.3524 159.38 33.326C159.09 33.3252 158.801 33.3069 158.513 33.2714V29.5269H159.094ZM159.094 32.802C159.229 32.8209 159.365 32.8307 159.501 32.8311C159.617 32.8459 159.734 32.8365 159.845 32.8035C159.957 32.7704 160.06 32.7145 160.148 32.6392C160.236 32.564 160.307 32.4713 160.357 32.367C160.406 32.2627 160.433 32.1493 160.435 32.0341C160.435 31.4264 159.964 31.2408 159.527 31.2408C159.382 31.2394 159.236 31.2528 159.094 31.2809V32.802ZM162 29.5269V33.2859H161.405V29.5269H162Z" fill="white"/>
<path d="M57.9046 3.57715H52.5731L42.9021 26.139H48.4137C48.4137 26.139 50.3979 21.1754 50.4419 21.0444H60.146C60.1901 21.1645 62.2918 26.139 62.2918 26.139H67.932L57.9928 3.57715H57.9046ZM52.0256 17.0997C52.1285 16.8705 55.0312 9.60335 55.2113 9.16667C55.3877 9.60335 58.3492 16.8705 58.4521 17.0997H52.0256Z" fill="white"/>
<path d="M85.8373 17.8057C85.4258 19.4214 84.735 20.6187 83.8348 21.3537C82.9056 22.1116 81.731 22.511 80.5278 22.4782C79.7366 22.5046 78.9492 22.36 78.2201 22.0546C77.491 21.7492 76.8378 21.2902 76.3059 20.7096C75.2257 19.5415 74.6672 17.5219 74.6672 14.7235C74.6672 12.0924 75.2257 10.1674 76.3206 9.00293C76.8721 8.42296 77.5421 7.96619 78.286 7.66309C79.0299 7.35999 79.8305 7.21755 80.6344 7.24529C81.7983 7.21065 82.9414 7.55729 83.8862 8.23146C84.7782 8.89491 85.4032 9.85054 85.6499 10.928L85.6683 11.0226L90.7316 9.91268L90.7022 9.81807C90.14 7.99856 89.2912 6.60846 88.1852 5.65504C86.3223 4.02112 83.8641 3.19507 80.8732 3.19507C77.4634 3.19507 74.6672 4.24674 72.5691 6.31734C70.471 8.38794 69.4091 11.3355 69.4091 15.051C69.4091 18.5808 70.4673 21.4083 72.5544 23.4462C74.6414 25.484 77.3311 26.5211 80.5756 26.5211C83.1954 26.5211 85.3853 25.9207 87.0903 24.7235C88.7952 23.5262 90.0298 21.6776 90.7646 19.2285L90.7904 19.1485L85.8483 17.6929L85.8373 17.8057Z" fill="white"/>
<path d="M161.893 3.57715H156.893V12.3836H147.468V3.57715H142.346V26.139H147.468V16.361H156.893V26.1463H162V3.58443L161.893 3.57715Z" fill="white"/>
<path d="M93.2632 3.57715V7.55459H100.329V26.1463H105.352V7.55459H112.399V3.57715H93.2632Z" fill="white"/>
<path d="M126.719 3.19507C124.906 3.1618 123.103 3.468 121.405 4.09755C120.215 4.55689 119.128 5.24307 118.205 6.1172C117.265 7.01182 116.49 8.06233 115.916 9.22127C115.181 10.7751 114.795 12.7111 114.795 15.0037C114.795 18.5735 115.897 21.4156 118.032 23.4534C120.167 25.4913 123.136 26.5284 126.785 26.5284C130.378 26.5284 133.296 25.4804 135.453 23.4316C137.609 21.3828 138.701 18.5117 138.701 14.8836C138.701 11.2555 137.598 8.33336 135.438 6.30279C133.277 4.27222 130.323 3.19507 126.719 3.19507ZM121.975 20.5532C120.718 19.2613 120.079 17.3435 120.079 14.8472C120.079 12.3508 120.696 10.3858 121.916 9.1303C123.136 7.87484 124.767 7.24529 126.759 7.24529C128.75 7.24529 130.375 7.8712 131.576 9.10483C132.778 10.3385 133.388 12.2598 133.388 14.789C133.388 17.3181 132.763 19.2868 131.55 20.5568C130.935 21.1906 130.191 21.6892 129.368 22.0202C128.545 22.3512 127.661 22.5073 126.774 22.4782C125.882 22.5069 124.995 22.3505 124.168 22.0189C123.342 21.6874 122.595 21.1881 121.975 20.5532Z" fill="white"/>
</g>
<defs>
<linearGradient id="paint0_linear_0_164" x1="0" y1="16.4986" x2="37.2877" y2="16.4986" gradientUnits="userSpaceOnUse">
<stop stop-color="#E30613"/>
<stop offset="1" stop-color="#8A1002"/>
</linearGradient>
<clipPath id="clip0_0_164">
<rect width="162" height="35" fill="white"/>
</clipPath>
</defs>
</svg>
