<svg width="15" height="9" viewBox="0 0 15 9" fill="none" xmlns="http://www.w3.org/2000/svg">
<g clip-path="url(#clip0_0_48)">
<path d="M15 8.02073C14.957 8.12755 14.9178 8.23772 14.8787 8.33786C13.3642 7.05596 11.8576 5.78408 10.347 4.50886C11.8654 3.22696 13.372 1.95174 14.8865 0.676514C14.9178 0.756632 14.9609 0.866796 15 0.973621C15 3.32377 15 5.67392 15 8.02073Z" fill="black"/>
<path d="M14.2369 0.115682C14.0099 0.305963 13.7947 0.479554 13.5873 0.659821C11.6932 2.27889 9.80302 3.89795 7.90894 5.51702C7.64283 5.74402 7.35324 5.74402 7.09104 5.52035C5.02086 3.74439 2.95068 1.97176 0.876587 0.199139C0.84528 0.172432 0.817887 0.145726 0.759186 0.0923136C0.935288 0.0589308 1.084 0.0288863 1.23271 0.00551838C1.28749 -0.00449646 1.35011 0.0021801 1.40881 0.0021801C5.4709 0.0021801 9.52908 0.0021801 13.5912 0.0021801C13.8064 -0.00115818 14.0138 0.0188715 14.2369 0.115682Z" fill="black"/>
<path d="M0.786591 8.87548C2.28933 7.60693 3.79598 6.33504 5.31438 5.0498C5.36525 5.09654 5.43569 5.16331 5.51004 5.22673C5.82703 5.49713 6.14401 5.77087 6.461 6.04127C7.07931 6.56872 7.91678 6.56872 8.539 6.03794C8.93034 5.70411 9.32168 5.37362 9.68954 5.06316C11.1962 6.33504 12.7028 7.61027 14.2369 8.90552C14.0608 8.93891 13.9121 8.96895 13.7595 8.99232C13.6968 9.00233 13.6342 8.99566 13.5677 8.99566C9.51735 8.99566 5.467 8.99566 1.41665 8.99232C1.20532 8.99232 0.997913 8.94892 0.786591 8.92889C0.790504 8.9122 0.790504 8.89217 0.786591 8.87548Z" fill="black"/>
<path d="M0.101746 8.34789C0.0665257 8.19433 0.0039116 8.04077 0.0039116 7.88721C-1.78337e-06 5.62719 -1.78337e-06 3.36718 0.0039116 1.10716C0.0039116 0.953601 0.0704391 0.803378 0.101746 0.656494C1.62797 1.94841 3.13853 3.22363 4.65301 4.50219C3.14245 5.77741 1.63579 7.05264 0.101746 8.34789Z" fill="black"/>
</g>
<defs>
<clipPath id="clip0_0_48">
<rect width="15" height="9" fill="white"/>
</clipPath>
</defs>
</svg>
